<?xml version="1.0" standalone="no"?>
<!DOCTYPE svg PUBLIC "-//W3C//DTD SVG 20010904//EN"
 "http://www.w3.org/TR/2001/REC-SVG-20010904/DTD/svg10.dtd">
<svg version="1.0" xmlns="http://www.w3.org/2000/svg"
 width="700.000000pt" height="700.000000pt" viewBox="0 0 700.000000 700.000000"
 preserveAspectRatio="xMidYMid meet">
<metadata>
Created by potrace 1.14, written by Peter Selinger 2001-2017
</metadata>
<g transform="translate(0.000000,700.000000) scale(0.100000,-0.100000)"
fill="#000000" stroke="none">
<path d="M0 4845 l0 -2155 875 0 875 0 0 1277 0 1278 872 -873 873 -872 -875
-875 -875 -875 -872 0 -873 0 0 -875 0 -875 1012 0 1013 0 740 740 740 740
740 -740 740 -740 1007 0 1008 0 0 3500 0 3500 -1012 0 -1013 0 -737 -737
-738 -738 -738 738 -737 737 -1013 0 -1012 0 0 -2155z m5250 -1347 l0 -1743
-872 872 -873 873 870 870 c478 478 871 870 872 870 2 0 3 -784 3 -1742z"/>
</g>
</svg>
